<svg xmlns="http://www.w3.org/2000/svg" viewBox="0 0 64 64" role="img" aria-labelledby="title">
  <title id="title">Tutoring Platform</title>
  <rect width="64" height="64" rx="12" fill="#077a9f"/>
  <path d="M13 18.5c6.8-1.9 13.1-.8 19 3.2v27.8c-5.9-4-12.2-5.1-19-3.2V18.5Z" fill="#fff"/>
  <path d="M51 18.5c-6.8-1.9-13.1-.8-19 3.2v27.8c5.9-4 12.2-5.1 19-3.2V18.5Z" fill="#e9f7fb"/>
  <path d="M32 21.7v27.8" fill="none" stroke="#05556f" stroke-linecap="round" stroke-width="2"/>
  <path d="M17.5 25.5c3.7-.5 7.1.1 10.2 1.8M17.5 31.5c3.7-.5 7.1.1 10.2 1.8M46.5 25.5c-3.7-.5-7.1.1-10.2 1.8"
    fill="none" stroke="#8ac7d9" stroke-linecap="round" stroke-width="2"/>
  <circle cx="48" cy="47" r="11" fill="#198754" stroke="#fff" stroke-width="2"/>
  <path d="M43.5 47.2 47 50.5l5.8-7" fill="none" stroke="#fff" stroke-linecap="round"
    stroke-linejoin="round" stroke-width="2.8"/>
</svg>
